<svg width="637" height="114" viewBox="0 0 637 114" fill="none" xmlns="http://www.w3.org/2000/svg">
<path d="M177.73 28.1294C181.404 28.1295 185.13 28.8385 188.908 30.2554C191.965 31.3858 194.721 32.917 197.176 34.8491C198.2 35.6555 198.231 37.1641 197.318 38.0952L189.163 46.4165C188.191 47.4083 186.578 47.3038 185.499 46.4292C184.653 45.7432 183.716 45.1798 182.689 44.7397C180.853 43.9001 179.2 43.4801 177.73 43.48C176.366 43.48 175.264 43.6901 174.424 44.1099C173.584 44.4772 173.164 45.1073 173.164 45.9995C173.164 46.8391 173.584 47.4684 174.424 47.8882C175.316 48.308 176.733 48.8336 178.675 49.4634C180.669 50.0931 182.769 50.8278 184.973 51.6675C187.177 52.5072 189.197 53.6087 191.034 54.9731C192.923 56.2851 194.472 57.9123 195.679 59.854C196.886 61.7958 197.489 64.2107 197.489 67.0972C197.489 70.4558 196.807 73.3946 195.442 75.9136C194.13 78.3802 192.372 80.4529 190.168 82.1323C188.016 83.7592 185.576 84.9672 182.847 85.7544C180.118 86.594 177.336 87.0132 174.502 87.0132C172.245 87.0132 170.015 86.8031 167.811 86.3833C165.659 86.016 163.56 85.4655 161.514 84.731C159.52 83.9438 157.63 83.0513 155.846 82.0542C154.788 81.432 153.794 80.7726 152.865 80.0767C151.831 79.3011 151.76 77.8096 152.634 76.8569L160.76 68.0024C161.675 67.0059 163.245 67.0114 164.314 67.8394C165.284 68.5901 166.397 69.2878 167.653 69.9312C169.858 71.0333 172.115 71.5835 174.424 71.5835C175.473 71.5835 176.418 71.4001 177.258 71.0327C178.15 70.6653 178.596 69.9829 178.596 68.9858C178.596 68.4613 178.439 68.0152 178.124 67.6479C177.862 67.2806 177.363 66.9128 176.628 66.5454C175.893 66.1256 174.87 65.6798 173.558 65.2075C172.298 64.7352 170.698 64.1839 168.756 63.5542C166.867 62.9245 165.056 62.1897 163.324 61.3501C161.592 60.458 160.044 59.382 158.68 58.1226C157.368 56.863 156.317 55.3671 155.53 53.6353C154.743 51.851 154.35 49.7257 154.35 47.2593C154.35 43.7956 155.058 40.856 156.475 38.4419C157.892 36.0278 159.703 34.0596 161.907 32.5376C164.164 30.9633 166.683 29.8351 169.464 29.1528C172.245 28.4706 175.001 28.1294 177.73 28.1294ZM397.335 30.1333C401.743 30.1333 405.941 30.5791 409.93 31.4712C413.971 32.3109 417.514 33.8069 420.558 35.9585C423.654 38.0577 426.12 40.8661 427.957 44.3823C429.794 47.8986 430.713 52.333 430.713 57.686C430.713 62.5667 429.82 66.7912 428.036 70.3599C426.304 73.9285 423.969 76.8681 421.03 79.1772C418.091 81.4338 414.706 83.1132 410.875 84.2153C407.044 85.3174 403.055 85.8686 398.909 85.8687H383.737C384.233 85.0715 384.52 84.1311 384.521 83.1235V72.1665C384.52 69.29 382.188 66.958 379.312 66.9575H379.129C380.789 66.0866 381.923 64.3455 381.923 62.3403V52.4077C381.923 50.534 380.933 48.8909 379.448 47.9731C381.607 47.3368 383.183 45.3396 383.183 42.9751V32.019C383.183 31.3539 383.056 30.7182 382.829 30.1333H397.335ZM450.325 30.1333C453.054 30.1333 455.756 30.4223 458.433 30.9995C461.162 31.5243 463.577 32.4946 465.676 33.9116C467.827 35.2761 469.559 37.1398 470.871 39.5015C472.183 41.8106 472.839 44.7236 472.839 48.2397C472.839 51.6509 472 54.6685 470.32 57.2925C469.085 59.1837 467.453 60.763 465.423 62.0298C464.231 62.7735 463.743 64.3369 464.489 65.5269L475.024 82.3228C475.991 83.8647 474.883 85.8686 473.062 85.8687H457.062C456.209 85.8685 455.426 85.4003 455.022 84.6499L445.069 66.1333C445.009 66.0216 444.892 65.9517 444.766 65.9517C444.575 65.9517 444.421 66.1061 444.421 66.2964V83.5532C444.421 84.8318 443.384 85.8685 442.105 85.8687H428.63C427.351 85.8686 426.314 84.8319 426.314 83.5532V78.4712C428.085 76.5082 429.577 74.2748 430.789 71.7808C432.809 67.734 433.763 63.0522 433.763 57.8276C433.763 52.1636 432.794 47.2319 430.679 43.1831C429.478 40.885 428.022 38.8417 426.314 37.062V32.4487C426.314 31.17 427.351 30.1333 428.63 30.1333H450.325ZM503.062 30.1333C504.017 30.1333 504.873 30.7189 505.22 31.6079L525.142 82.7124C525.733 84.2304 524.614 85.8687 522.984 85.8687H507.617C506.638 85.8686 505.764 85.2523 505.436 84.3296L503.618 79.2212C503.29 78.2983 502.416 77.6812 501.437 77.6812H487.021C486.027 77.6813 485.144 78.3162 484.827 79.2583L483.134 84.2915C482.817 85.2336 481.933 85.8685 480.939 85.8687H477.886C478.579 84.3663 478.575 82.535 477.566 80.9263L469.672 68.3394L484.15 31.6001C484.499 30.7153 485.354 30.1333 486.305 30.1333H503.062ZM536.758 30.1333C537.752 30.1335 538.636 30.7687 538.953 31.7114L548.438 59.9438C548.474 60.0528 548.576 60.1264 548.691 60.1265C548.81 60.1263 548.916 60.0473 548.949 59.9331L557.145 31.8013C557.432 30.8131 558.339 30.1333 559.368 30.1333H580.585C581.863 30.1335 582.9 31.1701 582.9 32.4487V83.5532C582.9 84.8318 581.863 85.8684 580.585 85.8687H567.072C565.778 85.8687 564.734 84.8067 564.757 83.5122L565.263 54.7769C565.265 54.6392 565.165 54.5204 565.029 54.4976C564.894 54.4753 564.763 54.5549 564.72 54.6851L554.929 84.2808C554.615 85.2284 553.729 85.8684 552.73 85.8687H542.86C541.857 85.8687 540.968 85.2227 540.658 84.269L530.994 54.5347C530.964 54.4425 530.878 54.3797 530.781 54.3794C530.655 54.3794 530.553 54.4838 530.557 54.6099L531.351 83.4897C531.386 84.7927 530.34 85.8684 529.036 85.8687H527.249C527.983 84.5751 528.176 82.9651 527.57 81.4106L513.94 46.4458V32.4487C513.94 31.1702 514.976 30.1335 516.255 30.1333H536.758ZM614.033 30.1333C614.987 30.1334 615.844 30.719 616.19 31.6079L636.112 82.7124C636.704 84.2303 635.584 85.8684 633.955 85.8687H618.588C617.608 85.8687 616.735 85.2523 616.406 84.3296L614.589 79.2212C614.261 78.2984 613.387 77.6813 612.407 77.6812H597.992C596.998 77.6813 596.115 78.3163 595.798 79.2583L594.104 84.2915C593.787 85.2335 592.904 85.8684 591.91 85.8687H585.288C585.613 85.189 585.796 84.4281 585.796 83.6245V55.2632L595.121 31.6001C595.47 30.7153 596.324 30.1333 597.275 30.1333H614.033ZM209.235 29.7026C210.346 29.7029 211.3 30.4925 211.509 31.5835L217.104 60.8784C217.121 60.9686 217.199 61.0335 217.291 61.0337C217.382 61.0336 217.461 60.9703 217.479 60.8813L223.522 31.5513C223.744 30.4754 224.692 29.7026 225.79 29.7026H241.65C242.734 29.7029 243.673 30.4556 243.909 31.5132L250.478 60.8823C250.497 60.9708 250.575 61.0337 250.666 61.0337C250.759 61.0336 250.839 60.9684 250.856 60.8774L256.524 31.5786C256.735 30.4899 257.689 29.7026 258.798 29.7026H273.048C274.579 29.7027 275.689 31.1638 275.278 32.6392L261.059 83.7437C260.78 84.745 259.868 85.4379 258.828 85.438H243.502C242.44 85.438 241.514 84.7148 241.256 83.6841L233.86 54.1021C233.838 54.0124 233.757 53.9489 233.664 53.9487C233.572 53.9487 233.491 54.0119 233.468 54.1011L225.846 83.6997C225.582 84.7227 224.66 85.4379 223.604 85.438H208.274C207.23 85.438 206.315 84.7392 206.04 83.7319L195.238 44.106L199.377 39.8843C201.381 37.8395 201.46 34.3074 198.957 32.3374C197.721 31.3648 196.417 30.4873 195.049 29.7026H209.235ZM292.328 29.7026C293.607 29.7028 294.643 30.7396 294.644 32.0181V83.1226C294.644 84.4012 293.607 85.4378 292.328 85.438H278.065C276.787 85.438 275.75 84.4013 275.75 83.1226V41.1782L277.979 33.1694C278.313 31.9652 278.196 30.7661 277.749 29.7261C277.852 29.7119 277.958 29.7026 278.065 29.7026H292.328ZM320.503 29.7026C323.337 29.7027 326.119 30.0172 328.848 30.647C331.577 31.2243 334.017 32.2479 336.169 33.7173C338.321 35.1342 340.052 37.0503 341.364 39.4644C342.676 41.8259 343.332 44.818 343.332 48.439C343.332 51.9023 342.676 54.8414 341.364 57.2554C340.105 59.6693 338.399 61.6378 336.247 63.1597C334.148 64.6814 331.707 65.7841 328.926 66.4663C326.197 67.1484 323.389 67.4887 320.503 67.4888H317.544C316.265 67.4888 315.229 68.5258 315.229 69.8042V83.1226C315.229 84.4011 314.192 85.4378 312.913 85.438H298.887C298.246 85.438 297.666 85.1764 297.247 84.7554C297.387 84.2844 297.464 83.7854 297.464 83.269V32.1646C297.464 31.5677 297.362 30.9945 297.177 30.4604C297.6 29.9961 298.209 29.7027 298.887 29.7026H320.503ZM378.027 29.7026C379.306 29.7028 380.343 30.7396 380.343 32.0181V42.9741C380.343 44.2527 379.306 45.2894 378.027 45.2896H361.955C360.676 45.2896 359.64 46.3264 359.64 47.605V47.7759C359.64 49.0546 360.676 50.0913 361.955 50.0913H376.769C378.047 50.0917 379.084 51.1285 379.084 52.4067V62.3403C379.084 63.6186 378.047 64.6544 376.769 64.6548H361.955C360.677 64.6548 359.64 65.6918 359.64 66.9702V67.5356C359.64 68.8143 360.676 69.8511 361.955 69.8511H379.366C380.645 69.8513 381.681 70.8881 381.682 72.1665V83.1226C381.682 84.4011 380.645 85.4377 379.366 85.438H344.321C343.043 85.438 342.006 84.4013 342.006 83.1226V61.6597C342.817 60.6516 343.535 59.5543 344.154 58.3706C345.741 55.4407 346.462 52.0072 346.462 48.1938C346.462 44.2473 345.75 40.7366 344.136 37.8257C343.514 36.6825 342.803 35.6269 342.006 34.6616V32.0181C342.006 30.7395 343.043 29.7026 344.321 29.7026H378.027ZM396.895 46.0347C395.616 46.0349 394.579 47.0717 394.579 48.3501V67.4937C394.579 68.7722 395.616 69.8089 396.895 69.8091H398.043C402.451 69.8091 405.837 68.8643 408.198 66.9751C410.56 65.0333 411.74 61.8846 411.74 57.5288C411.74 53.9076 410.56 51.0993 408.198 49.105C405.837 47.0585 402.688 46.0347 398.752 46.0347H396.895ZM494.957 51.2524C494.784 50.7214 494.032 50.7194 493.856 51.2495L490.098 62.5933C489.974 62.9678 490.252 63.3538 490.646 63.354H498.101C498.494 63.354 498.773 62.9702 498.651 62.5962L494.957 51.2524ZM605.928 51.2524C605.755 50.7214 605.003 50.7195 604.827 51.2495L601.068 62.5933C600.944 62.9677 601.223 63.3537 601.617 63.354H609.071C609.464 63.3538 609.744 62.9701 609.622 62.5962L605.928 51.2524ZM444.842 44.6968C444.522 44.6969 444.263 44.9563 444.263 45.2759V53.0923C444.263 53.4119 444.522 53.6713 444.842 53.6714H447.963C448.593 53.6714 449.275 53.6191 450.01 53.5142C450.797 53.4092 451.506 53.1992 452.136 52.8843C452.818 52.517 453.368 52.0443 453.788 51.4673C454.26 50.8376 454.497 50.0239 454.497 49.0269C454.497 48.0297 454.314 47.2418 453.946 46.6646C453.579 46.0875 453.106 45.6682 452.529 45.4058C451.952 45.0909 451.322 44.9065 450.64 44.854C449.957 44.7491 449.327 44.6968 448.75 44.6968H444.842ZM315.808 44.2661C315.488 44.2661 315.229 44.5257 315.229 44.8452V52.6616C315.229 52.9813 315.488 53.2407 315.808 53.2407H319.165C320.582 53.2406 321.868 52.8994 323.022 52.2173C324.229 51.4825 324.833 50.2752 324.833 48.5962C324.833 47.7042 324.675 46.995 324.36 46.4702C324.046 45.8932 323.599 45.4471 323.022 45.1323C322.498 44.8176 321.894 44.6074 321.212 44.5024C320.53 44.3451 319.847 44.2662 319.165 44.2661H315.808Z" fill="white"/>
<path d="M60.9443 0C74.7472 0 87.2891 4.96783 96.5762 13.0654L98.8506 12.8223C108.163 11.8225 116.71 18.0709 118.583 27.248L120.059 34.4785C120.805 38.1402 117.249 41.2025 113.74 39.9199L111.958 39.2686C112.487 42.0026 112.764 44.8173 112.764 47.6914C112.764 60.6827 107.117 72.4583 97.9629 81.0596C98.4681 81.9951 99.0572 82.6978 99.6094 83.0723C99.7213 83.1475 100.595 83.5128 101.982 83.1641C103.202 82.8575 104.27 82.1171 104.917 80.9014C106.7 77.5519 110.861 76.2822 114.211 78.0654C117.56 79.8488 118.83 84.0098 117.047 87.3594C114.37 92.388 109.873 95.35 105.334 96.4912C101.103 97.5551 96.2085 97.1759 92.2822 94.6973L93.4199 98.4844C94.7368 102.869 92.2499 107.492 87.8652 108.809C83.4805 110.125 78.8581 107.638 77.541 103.254L76.2217 98.8633L77.041 103.486C77.8392 107.994 74.8323 112.296 70.3242 113.095C65.816 113.893 61.5142 110.885 60.7158 106.377L60.1455 103.16L59.5762 106.378C58.7774 110.886 54.4749 113.893 49.9668 113.095C45.4587 112.296 42.4513 107.993 43.25 103.485L44.0654 98.8789L42.752 103.254C41.4347 107.639 36.8125 110.126 32.4277 108.809C28.0431 107.491 25.557 102.869 26.874 98.4844L27.585 96.1143C24.3102 97.2727 20.6984 97.3025 17.4717 96.4912C12.933 95.35 8.43498 92.3882 5.75781 87.3594C3.9746 84.0097 5.24507 79.8486 8.59473 78.0654C11.9444 76.2822 16.1055 77.5517 17.8887 80.9014C18.5358 82.117 19.6031 82.8575 20.8223 83.1641C22.2111 83.5133 23.086 83.147 23.1963 83.0723C23.6342 82.7753 24.0943 82.2714 24.5186 81.6094C15.0154 72.9638 9.12598 60.9611 9.12598 47.6914C9.12601 44.5772 9.45005 41.5327 10.0693 38.585L6.41895 39.9199C2.9101 41.2026 -0.646163 38.1402 0.100586 34.4785L1.57617 27.248C3.44922 18.0711 11.9953 11.8226 21.3076 12.8223L25.1221 13.2305C34.4276 5.03458 47.0473 0.000102055 60.9443 0Z" fill="#FB7702"/>
<path d="M55.7929 63.4711C56.7325 58.8694 53.0623 54.234 47.5954 53.1177C42.1284 52.0015 36.9348 54.8271 35.9952 59.4288C35.0556 64.0306 38.7258 68.666 44.1928 69.7823C49.6598 70.8985 54.8534 68.0729 55.7929 63.4711Z" fill="white"/>
<mask id="mask0_25_1447" style="mask-type:luminance" maskUnits="userSpaceOnUse" x="35" y="52" width="21" height="19">
<path d="M55.79 63.4731C56.7296 58.8713 53.0594 54.2359 47.5924 53.1197C42.1254 52.0034 36.9319 54.829 35.9923 59.4308C35.0527 64.0326 38.7229 68.668 44.1899 69.7842C49.6569 70.9005 54.8504 68.0749 55.79 63.4731Z" fill="white"/>
</mask>
<g mask="url(#mask0_25_1447)">
<path d="M46.3731 66.2303C50.0558 66.2303 53.0412 63.0357 53.0412 59.0949C53.0412 55.1541 50.0558 51.9595 46.3731 51.9595C42.6905 51.9595 39.7051 55.1541 39.7051 59.0949C39.7051 63.0357 42.6905 66.2303 46.3731 66.2303Z" fill="#111111"/>
</g>
<path d="M76.1012 69.7798C81.5682 68.6636 85.2384 64.0282 84.2988 59.4264C83.3592 54.8247 78.1657 51.9991 72.6987 53.1153C67.2317 54.2316 63.5615 58.867 64.5011 63.4687C65.4407 68.0705 70.6342 70.8961 76.1012 69.7798Z" fill="white"/>
<mask id="mask1_25_1447" style="mask-type:luminance" maskUnits="userSpaceOnUse" x="64" y="52" width="21" height="19">
<path d="M76.1041 69.7791C81.5711 68.6629 85.2413 64.0275 84.3017 59.4257C83.3621 54.8239 78.1686 51.9984 72.7016 53.1146C67.2346 54.2308 63.5644 58.8662 64.504 63.468C65.4436 68.0698 70.6372 70.8954 76.1041 69.7791Z" fill="white"/>
</mask>
<g mask="url(#mask1_25_1447)">
<path d="M73.921 66.2281C77.6036 66.2281 80.589 63.0335 80.589 59.0927C80.589 55.1519 77.6036 51.9573 73.921 51.9573C70.2383 51.9573 67.2529 55.1519 67.2529 59.0927C67.2529 63.0335 70.2383 66.2281 73.921 66.2281Z" fill="#111111"/>
</g>
</svg>
