<?xml version="1.0" encoding="UTF-8"?>
<svg version="1.1" xmlns="http://www.w3.org/2000/svg" width="78" height="78">
<path d="M0 0 C4.29 0 8.58 0 13 0 C13.20753906 1.18335937 13.41507813 2.36671875 13.62890625 3.5859375 C15.55914644 13.79665965 17.45515522 22.83964162 26.03125 29.6015625 C31.84802372 33.20543318 38.36269726 34.61863242 45 36 C42.68027181 38.31972819 41.17222379 38.6702211 38.0625 39.625 C27.34835874 43.44445796 19.47805594 50.04509939 14 60 C11.22574538 65.85922577 9.01306184 71.84239908 7 78 C4.88530454 74.8279568 4.02186949 72.12506999 2.875 68.5 C-1.15862783 56.74058765 -8.12713293 48.19305057 -19 42 C-23.26429444 40.09960791 -27.5685227 38.46541698 -32 37 C-32 36.67 -32 36.34 -32 36 C-31.16597656 35.85304687 -30.33195312 35.70609375 -29.47265625 35.5546875 C-19.79766798 33.62633932 -12.58238717 30.95474799 -6.625 22.8125 C-2.40097688 15.87386922 -0.88732069 7.98588617 0 0 Z " fill="#FFFFFF" transform="translate(32,0)"/>
</svg>
