<svg width="173" height="43" viewBox="0 0 173 43" fill="none" xmlns="http://www.w3.org/2000/svg">
<path d="M164.109 11H158.609V31.17H164.109V11Z" fill="white"/>
<path d="M172.359 11H166.859V31.17H172.359V11Z" fill="white"/>
<path d="M115.2 17.18C113.83 15.88 111.81 15.58 110.93 15.58C108.42 15.58 106.86 16.31 105.89 17.23V10.99H100.39V31.16H105.89V23.37C105.89 20.62 107.68 20.17 108.64 20.17C109.6 20.17 111.39 20.62 111.39 23.37V31.16H116.89C116.89 31.16 116.89 21.2 116.89 21.07C116.89 20.15 116.71 18.61 115.2 17.17V17.18Z" fill="white"/>
<path d="M63.2597 11V18.33H55.9297V11H50.4297V31.17H55.9297V23.83H63.2597V31.17H68.7597V11H63.2597Z" fill="white"/>
<path d="M77.0098 16.5H71.5098V31.17H77.0098V16.5Z" fill="white"/>
<path d="M74.2598 14.67C76.0326 14.67 77.4698 13.2328 77.4698 11.46C77.4698 9.68717 76.0326 8.25 74.2598 8.25C72.487 8.25 71.0498 9.68717 71.0498 11.46C71.0498 13.2328 72.487 14.67 74.2598 14.67Z" fill="white"/>
<path d="M150.359 16.0401V18.3301C149.789 16.7601 147.649 15.5701 145.779 15.5701C141.649 15.5701 138.449 18.8201 138.449 23.3801C138.449 28.2501 141.219 31.6301 145.779 31.6301C147.649 31.6301 149.239 30.7501 150.359 29.3301V31.1701H155.859V16.0401H150.359ZM146.699 27.2801C144.679 27.2801 143.029 25.6401 143.029 23.6101C143.029 21.5801 144.669 19.9401 146.699 19.9401C148.729 19.9401 150.369 21.5801 150.369 23.6101C150.369 25.6401 148.729 27.2801 146.699 27.2801Z" fill="white"/>
<path d="M134.32 21.09C135.45 20.07 136.15 18.6 136.15 16.95C136.15 13.88 133.86 11 129.73 11H119.64V31.17H131.13C134.77 31.17 137.06 28.5 137.06 25.21C137.06 23.19 135.95 21.8 134.31 21.09H134.32ZM130.65 24.98C130.65 26.12 129.72 27.05 128.58 27.05H125.15V22.91H128.58C129.72 22.91 130.65 23.84 130.65 24.98ZM130.65 17.2C130.65 18.34 129.72 19.27 128.58 19.27H125.15V15.13H128.58C129.72 15.13 130.65 16.06 130.65 17.2Z" fill="white"/>
<path d="M92.1398 16.0401V18.4701C90.9598 16.7001 88.9998 15.5801 86.1698 15.5801C82.5098 15.5801 79.2998 18.8301 79.2998 23.3801C79.2998 28.2501 82.0698 31.6201 86.6298 31.6201C89.1598 31.6201 90.9998 30.5201 92.1298 28.7901V32.9901C92.1298 34.7701 90.2998 36.2001 88.4598 36.2001C86.7898 36.2001 85.1198 35.0001 84.8398 33.4501H80.2198C80.2998 34.9901 81.1298 39.8701 88.4698 39.8701C96.7498 39.8701 97.6398 33.9101 97.6398 32.9901V16.0301H92.1398V16.0401ZM88.4698 27.5001C86.4498 27.5001 84.7998 25.8601 84.7998 23.8301C84.7998 21.8001 86.4398 20.1601 88.4698 20.1601C90.4998 20.1601 92.1398 21.8001 92.1398 23.8301C92.1398 25.8601 90.4998 27.5001 88.4698 27.5001Z" fill="white"/>
<path d="M21.09 0C9.44 0 0 9.44 0 21.09C0 32.74 9.44 42.18 21.09 42.18C32.74 42.18 42.18 32.74 42.18 21.09C42.18 9.44 32.73 0 21.09 0ZM12.38 25.21C10.1 25.21 8.25 23.36 8.25 21.08C8.25 18.8 10.1 16.95 12.38 16.95C14.66 16.95 16.51 18.8 16.51 21.08C16.51 23.36 14.66 25.21 12.38 25.21ZM29.8 29.8L12.38 13.29L3.23 21.98C3.22 21.68 3.21 21.38 3.21 21.08C3.21 11.21 11.21 3.21 21.09 3.21C30.97 3.21 38.97 11.21 38.97 21.09L29.8 29.8Z" fill="white"/>
<path d="M29.7999 17.4199C27.7699 17.4199 26.1299 19.0599 26.1299 21.0899C26.1299 23.1199 27.7699 24.7599 29.7999 24.7599C31.8299 24.7599 33.4699 23.1199 33.4699 21.0899C33.4699 19.0599 31.8299 17.4199 29.7999 17.4199Z" fill="white"/>
</svg>
